<?xml version="1.0" encoding="UTF-8"?>
<svg width="320" height="70" viewBox="0 0 320 70" xmlns="http://www.w3.org/2000/svg" role="img" aria-label="Innomick Technology">
  <defs>
    <linearGradient id="bulbGlow" x1="0%" y1="0%" x2="100%" y2="100%">
      <stop offset="0%" stop-color="#1aae9d"/>
      <stop offset="100%" stop-color="#4ed14c"/>
    </linearGradient>
  </defs>
  <rect width="320" height="70" rx="12" fill="none"/>
  <path d="M25 32c0-7.5 6-15 12-15s12 7.5 12 15c0 5.3-2.4 10-5.5 12.8-1.3 1.1-2.2 2.6-2.2 4.3v6h-11v-6c0-1.7-.9-3.2-2.2-4.3-3.1-2.8-5.5-7.5-5.5-12.8z" fill="url(#bulbGlow)" stroke="#1b9ac7" stroke-width="1.5"/>
  <path d="M20 46h24" stroke="#1b9ac7" stroke-width="3" stroke-linecap="round"/>
  <path d="M22 50h20" stroke="#1b9ac7" stroke-width="3" stroke-linecap="round"/>
  <path d="M25 54h14" stroke="#1b9ac7" stroke-width="3" stroke-linecap="round"/>
  <circle cx="25" cy="25" r="5.5" fill="#f8f38c" opacity="0.8"/>
  <text x="70" y="33" font-family="Space Grotesk, sans-serif" font-size="28" font-weight="600" fill="#0d2a63">INNOMICK</text>
  <text x="70" y="53" font-family="Space Grotesk, sans-serif" font-size="19" font-weight="600" fill="#4caf50">TECHNOLOGY</text>
  <circle cx="18" cy="20" r="3" fill="#4caf50"/>
  <circle cx="40" cy="20" r="3" fill="#4caf50"/>
  <circle cx="30" cy="10" r="3" fill="#4caf50"/>
</svg>
